<svg width="132" height="32" viewBox="0 0 132 32" fill="none" xmlns="http://www.w3.org/2000/svg">
<g clip-path="url(#clip0_1_290)">
<path d="M12.1927 30.8636C9.9749 30.8636 8.02192 30.3384 6.30065 29.2551C4.57938 28.1718 3.25533 26.7275 2.26228 24.9877C1.26925 23.215 0.772726 21.2455 0.772726 19.1118C0.772726 16.9781 1.23615 15.0412 2.19609 13.3343C3.15603 11.5946 4.48008 10.183 6.20135 9.1326C7.92262 8.08215 9.8756 7.52411 12.1265 7.52411C14.245 7.52411 16.0986 8.01651 17.6875 9.00128C19.0116 9.75629 20.0377 10.7739 20.8322 11.9885C21.1301 12.448 20.8983 13.0389 20.4018 13.2031L19.0778 13.6298C18.7136 13.7283 18.3495 13.597 18.151 13.2687C17.5552 12.3824 16.7607 11.6602 15.7677 11.135C14.6422 10.4785 13.3843 10.1502 11.9941 10.1502C10.4714 10.1502 9.04806 10.5441 7.82332 11.332C6.59857 12.1198 5.60552 13.2031 4.8773 14.5817C4.14906 15.9276 3.78495 17.4705 3.78495 19.1446C3.78495 20.8516 4.14906 22.3944 4.91039 23.7731C5.67173 25.1519 6.66477 26.2678 7.92262 27.0885C9.18047 27.9091 10.5376 28.3032 12.0603 28.3032C13.0533 28.3032 14.0133 28.139 14.94 27.7779C15.867 27.4168 16.6613 26.9572 17.3234 26.3992C17.7868 25.9724 18.151 25.5129 18.4157 25.0533C18.5813 24.725 18.9785 24.561 19.3425 24.6593L20.6667 25.0533C21.1632 25.1845 21.3948 25.7426 21.1632 26.2023C20.766 26.9244 20.2364 27.5809 19.5743 28.2047C18.6475 29.0252 17.5552 29.7146 16.2642 30.1742C15.0063 30.6337 13.616 30.8636 12.1927 30.8636Z" fill="#222F3E"/>
<path d="M50.1604 29.9447L41.6202 9.0672C41.3886 8.54198 41.7858 7.95111 42.3816 7.95111H43.7056C44.0367 7.95111 44.3346 8.14808 44.467 8.47633L51.5176 26.2681C51.6832 26.7277 52.3451 26.7277 52.5106 26.2681L59.5943 8.47633C59.7268 8.1809 60.0246 7.95111 60.3556 7.95111H61.5142C62.0769 7.95111 62.4741 8.54198 62.2755 9.0672L53.7354 29.9447C53.603 30.2402 53.3051 30.437 52.974 30.437H50.8887C50.5577 30.4699 50.2597 30.273 50.1604 29.9447Z" fill="#222F3E"/>
<path d="M72.9993 30.8636C70.8146 30.8636 68.8616 30.3384 67.1734 29.2551C65.4521 28.2046 64.0951 26.7603 63.1351 24.9877C62.1421 23.215 61.6456 21.2455 61.6456 19.1118C61.6456 17.0109 62.109 15.0741 63.0689 13.3343C64.0619 11.5946 65.4192 10.183 67.1072 9.1326C68.8285 8.08215 70.7485 7.52411 72.9332 7.52411C75.184 7.52411 77.137 8.04933 78.8252 9.1326C80.5133 10.183 81.8043 11.5946 82.7311 13.3672C83.6911 15.1069 84.1545 16.9781 84.1545 19.0789C84.1545 19.2103 84.1545 19.3415 84.1545 19.44C84.1545 19.8667 83.7903 20.2279 83.3269 20.2279H65.2867C64.9556 20.2279 64.6909 20.5233 64.7571 20.8188C64.9556 22.1974 65.3861 23.4449 66.0811 24.5281C66.8756 25.7754 67.8686 26.7603 69.0934 27.5153C70.318 28.2375 71.6422 28.5985 73.0986 28.5985C74.5881 28.5985 75.9785 28.2375 77.2695 27.4824C78.3948 26.8587 79.2224 26.0381 79.7851 25.0533C79.9507 24.7578 80.3479 24.6266 80.6788 24.6922L81.6387 24.9548C82.1352 25.0862 82.4001 25.6771 82.1352 26.1366C81.7049 26.8587 81.1422 27.5481 80.4141 28.139C79.454 28.9596 78.3287 29.649 77.0708 30.1085C75.8791 30.6337 74.4889 30.8636 72.9993 30.8636ZM65.2536 18.127H81.4071C81.2747 16.5185 80.8444 15.1069 80.0499 13.8596C79.2555 12.5793 78.2625 11.6274 77.0377 10.938C75.8129 10.2159 74.4558 9.85477 72.9993 9.85477C71.5097 9.85477 70.1858 10.2159 68.961 10.938C67.7362 11.6274 66.7432 12.6122 65.9488 13.8596C65.2867 14.9429 64.8564 16.1573 64.6909 17.5361C64.6578 17.8315 64.9225 18.127 65.2536 18.127Z" fill="#222F3E"/>
<path d="M97.0316 28.6315C97.1641 29.0254 96.9654 29.4521 96.5682 29.6163C96.2373 29.7476 95.84 29.9117 95.3435 30.1087C94.4167 30.4697 93.3574 30.6667 92.1326 30.6667C90.8418 30.6667 89.7494 30.3055 88.7895 29.5835C87.8294 28.8612 87.366 27.778 87.366 26.3336V10.8068C87.366 10.5114 87.1344 10.2816 86.8364 10.2816H85.049C84.5855 10.2816 84.2214 9.92052 84.2214 9.46096V8.73878C84.2214 8.27922 84.5855 7.91813 85.049 7.91813H86.8364C87.1344 7.91813 87.366 7.68834 87.366 7.3929V1.15592C87.366 0.696354 87.7303 0.335266 88.1937 0.335266H89.5176C89.981 0.335266 90.3452 0.696354 90.3452 1.15592V7.42573C90.3452 7.72116 90.5769 7.95095 90.8749 7.95095H94.7476C95.2111 7.95095 95.5752 8.31204 95.5752 8.77161V9.49378C95.5752 9.95334 95.2111 10.3144 94.7476 10.3144H90.8749C90.5769 10.3144 90.3452 10.5442 90.3452 10.8397V25.5786C90.4115 26.3993 90.7093 27.023 91.2058 27.4497C91.7686 27.8108 92.3975 28.0078 93.0927 28.0078C93.9201 28.0078 94.6153 27.8765 95.2772 27.6139C95.4428 27.5483 95.6083 27.4826 95.7408 27.4169C96.1711 27.2199 96.7007 27.4497 96.8331 27.9093L97.0316 28.6315Z" fill="#222F3E"/>
<path d="M109.445 28.6315C109.577 29.0254 109.378 29.4521 108.981 29.6163C108.65 29.7476 108.253 29.9117 107.756 30.1087C106.83 30.4697 105.77 30.6667 104.546 30.6667C103.254 30.6667 102.162 30.3055 101.202 29.5835C100.242 28.8612 99.7789 27.778 99.7789 26.3336V10.8068C99.7789 10.5114 99.5472 10.2816 99.2493 10.2816H97.4287C96.9653 10.2816 96.6012 9.92052 96.6012 9.46096V8.73878C96.6012 8.27922 96.9653 7.91813 97.4287 7.91813H99.2162C99.514 7.91813 99.7458 7.68834 99.7458 7.3929V1.15592C99.7458 0.696354 100.11 0.335266 100.573 0.335266H101.897C102.361 0.335266 102.725 0.696354 102.725 1.15592V7.42573C102.725 7.72116 102.957 7.95095 103.254 7.95095H107.127C107.591 7.95095 107.955 8.31204 107.955 8.77161V9.49378C107.955 9.95334 107.591 10.3144 107.127 10.3144H103.254C102.957 10.3144 102.725 10.5442 102.725 10.8397V25.5786C102.791 26.3993 103.089 27.023 103.586 27.4497C104.148 27.8108 104.777 28.0078 105.472 28.0078C106.3 28.0078 106.995 27.8765 107.657 27.6139C107.823 27.5483 107.988 27.4826 108.12 27.4169C108.551 27.2199 109.08 27.4497 109.213 27.9093L109.445 28.6315Z" fill="#222F3E"/>
<path d="M119.938 30.7324C117.754 30.7324 115.801 30.2072 114.113 29.1239C112.391 28.0735 111.034 26.6292 110.074 24.8565C109.081 23.084 108.585 21.1143 108.585 18.9806C108.585 16.8797 109.048 14.943 110.008 13.2032C111.001 11.4635 112.358 10.0519 114.046 9.00149C115.768 7.95106 117.688 7.39301 119.872 7.39301C122.123 7.39301 124.076 7.91822 125.764 9.00149C127.452 10.0519 128.743 11.4635 129.67 13.2361C130.63 14.9759 131.094 16.8469 131.094 18.9479C131.094 19.0791 131.094 19.2104 131.094 19.3089C131.094 19.7357 130.729 20.0967 130.266 20.0967H112.226C111.895 20.0967 111.63 20.3922 111.696 20.6876C111.895 22.0664 112.325 23.2808 113.02 24.3969C113.815 25.6444 114.808 26.6292 116.032 27.3842C117.257 28.1063 118.581 28.4675 120.038 28.4675C121.527 28.4675 122.917 28.1063 124.208 27.3514C125.334 26.7277 126.161 25.9071 126.724 24.9222C126.89 24.6268 127.287 24.4954 127.618 24.5611L128.578 24.8238C129.074 24.955 129.339 25.5459 129.074 26.0054C128.644 26.7277 128.081 27.417 127.353 28.0079C126.393 28.8285 125.268 29.5179 124.01 29.9775C122.785 30.5027 121.395 30.7324 119.938 30.7324ZM112.16 17.9958H127.717C128.048 17.9958 128.313 17.7005 128.247 17.4049C128.081 16.0263 127.651 14.8117 126.956 13.7285C126.161 12.4482 125.168 11.4963 123.944 10.8069C122.719 10.0848 121.362 9.72366 119.905 9.72366C118.416 9.72366 117.092 10.0848 115.867 10.8069C114.642 11.4963 113.649 12.4811 112.855 13.7285C112.193 14.8117 111.762 16.0263 111.597 17.4049C111.597 17.7333 111.862 17.9958 112.16 17.9958Z" fill="#222F3E"/>
<path d="M39.5015 7.78693L41.8186 26.5307C42.0503 28.3033 40.7594 29.9118 38.9719 30.1416L28.5118 31.4218C26.7244 31.6516 25.1024 30.3714 24.8707 28.5988L22.5204 9.69086C22.4873 9.3626 22.7191 9.03433 23.0831 9.00151L24.7713 8.80455C25.1024 8.77173 25.4334 9.00151 25.4665 9.3626L27.6512 26.9247C27.7505 27.8109 28.578 28.4347 29.4717 28.3361L37.3168 27.3842C38.2105 27.2857 38.8394 26.4651 38.7401 25.5787L36.5554 7.95107C36.5223 7.62281 36.7541 7.29455 37.1181 7.26172L38.6408 7.06476C39.0381 6.99911 39.4684 7.32737 39.5015 7.78693Z" fill="#ACBAC9"/>
<path d="M36.0593 25.6445L30.2666 26.3339C29.8694 26.3994 29.4721 26.1041 29.439 25.6774L28.7109 19.8671L28.2143 15.7966C28.1812 15.6326 28.3466 15.5341 28.4791 15.5669L29.3398 15.8294C31.061 16.3218 32.8816 16.289 34.5698 15.6654L35.2649 15.4027C35.3972 15.3699 35.5297 15.4356 35.5297 15.5669L36.6551 24.7911C36.7545 25.2178 36.4565 25.6117 36.0593 25.6445Z" fill="#0B66EF"/>
</g>
<defs>
<clipPath id="clip0_1_290">
<rect width="131.879" height="32" fill="white"/>
</clipPath>
</defs>
</svg>
